<svg width="26" height="26" viewBox="0 0 26 26" fill="none" xmlns="http://www.w3.org/2000/svg">
<path d="M26 13.0484C26 5.84121 20.1805 0 13 0C5.81953 0 0 5.84121 0 13.0484C0 19.1649 4.19961 24.3027 9.86172 25.7146V17.0343H7.18047V13.0484H9.86172V11.3307C9.86172 6.8912 11.8625 4.83199 16.2094 4.83199C17.032 4.83199 18.4539 4.9951 19.0379 5.1582V8.76691C18.7332 8.73633 18.2 8.71594 17.5348 8.71594C15.402 8.71594 14.5793 9.52637 14.5793 11.6314V13.0484H18.8246L18.0934 17.0343H14.5742V26C21.0133 25.2202 26 19.7204 26 13.0484Z" fill="#E5E5E5"/>
</svg>
