<svg width="27" height="27" viewBox="0 0 27 27" fill="none" xmlns="http://www.w3.org/2000/svg">
<path d="M13.1353 6.39697C9.40869 6.39697 6.40283 9.40283 6.40283 13.1294C6.40283 16.856 9.40869 19.8618 13.1353 19.8618C16.8618 19.8618 19.8677 16.856 19.8677 13.1294C19.8677 9.40283 16.8618 6.39697 13.1353 6.39697ZM13.1353 17.5063C10.7271 17.5063 8.7583 15.5435 8.7583 13.1294C8.7583 10.7153 10.7212 8.75244 13.1353 8.75244C15.5493 8.75244 17.5122 10.7153 17.5122 13.1294C17.5122 15.5435 15.5435 17.5063 13.1353 17.5063ZM21.7134 6.12158C21.7134 6.99463 21.0103 7.6919 20.1431 7.6919C19.27 7.6919 18.5728 6.98877 18.5728 6.12158C18.5728 5.25439 19.2759 4.55127 20.1431 4.55127C21.0103 4.55127 21.7134 5.25439 21.7134 6.12158ZM26.1724 7.71533C26.0728 5.61182 25.5923 3.74854 24.0513 2.21338C22.5161 0.678222 20.6528 0.197754 18.5493 0.0922852C16.3813 -0.0307617 9.8833 -0.0307617 7.71533 0.0922852C5.61768 0.191895 3.75439 0.672363 2.21338 2.20752C0.672363 3.74268 0.197754 5.60596 0.0922852 7.70947C-0.0307617 9.87744 -0.0307617 16.3755 0.0922852 18.5435C0.191895 20.647 0.672363 22.5103 2.21338 24.0454C3.75439 25.5806 5.61182 26.061 7.71533 26.1665C9.8833 26.2895 16.3813 26.2895 18.5493 26.1665C20.6528 26.0669 22.5161 25.5864 24.0513 24.0454C25.5864 22.5103 26.0669 20.647 26.1724 18.5435C26.2954 16.3755 26.2954 9.8833 26.1724 7.71533ZM23.3716 20.8696C22.9146 22.0181 22.0298 22.9028 20.8755 23.3657C19.147 24.0513 15.0454 23.8931 13.1353 23.8931C11.2251 23.8931 7.11768 24.0454 5.39502 23.3657C4.24658 22.9087 3.36182 22.0239 2.89893 20.8696C2.21338 19.1411 2.37158 15.0396 2.37158 13.1294C2.37158 11.2192 2.21924 7.11182 2.89893 5.38916C3.35596 4.24072 4.24072 3.35596 5.39502 2.89307C7.12353 2.20752 11.2251 2.36572 13.1353 2.36572C15.0454 2.36572 19.1528 2.21338 20.8755 2.89307C22.0239 3.3501 22.9087 4.23486 23.3716 5.38916C24.0571 7.11768 23.8989 11.2192 23.8989 13.1294C23.8989 15.0396 24.0571 19.147 23.3716 20.8696Z" fill="#E5E5E5"/>
</svg>
