<svg width="120" height="50" viewBox="0 0 120 50" fill="none" xmlns="http://www.w3.org/2000/svg">
<rect width="120" height="50" fill="#FF6262"/>
<path d="M21.992 21.352C21.992 21.744 22.188 22.052 22.58 22.276C22.9907 22.5 23.6253 22.7427 24.484 23.004C25.5107 23.34 26.3507 23.6667 27.004 23.984C27.676 24.3013 28.2547 24.796 28.74 25.468C29.244 26.14 29.496 27.0173 29.496 28.1C29.496 31.572 27.2373 33.308 22.72 33.308C21.9733 33.308 21.0587 33.2427 19.976 33.112C18.912 32.9813 17.9413 32.8133 17.064 32.608C17.1013 32.216 17.176 31.6467 17.288 30.9C17.4187 30.1347 17.54 29.5653 17.652 29.192C18.3053 29.2853 19.2853 29.3973 20.592 29.528C21.9173 29.6587 22.916 29.724 23.588 29.724C23.98 29.724 24.2133 29.696 24.288 29.64C24.4 29.5653 24.484 29.444 24.54 29.276C24.6147 29.0893 24.652 28.9307 24.652 28.8C24.652 28.4267 24.4747 28.1467 24.12 27.96C23.7653 27.7547 23.1587 27.512 22.3 27.232C21.2733 26.9147 20.424 26.588 19.752 26.252C19.08 25.916 18.492 25.3933 17.988 24.684C17.484 23.9747 17.232 23.0413 17.232 21.884C17.232 21.0627 17.4187 20.26 17.792 19.476C18.1653 18.6733 18.548 18.132 18.94 17.852C19.2387 17.6467 19.8547 17.4507 20.788 17.264C21.7213 17.0773 22.5987 16.984 23.42 16.984C25.5107 16.984 27.2187 17.18 28.544 17.572C28.5253 17.9453 28.46 18.4587 28.348 19.112C28.2547 19.7653 28.152 20.3627 28.04 20.904L27.396 20.876C24.9693 20.708 23.42 20.624 22.748 20.624C22.468 20.624 22.3093 20.6333 22.272 20.652C22.1973 20.6893 22.132 20.7733 22.076 20.904C22.02 21.0347 21.992 21.184 21.992 21.352ZM39.2302 33L38.7822 31.236C37.9235 32.636 36.7288 33.336 35.1982 33.336C33.9475 33.336 32.9208 32.9907 32.1182 32.3C31.3342 31.5907 30.9422 30.6013 30.9422 29.332C30.9422 28.548 31.1662 27.8667 31.6142 27.288C32.0808 26.6907 32.7155 26.2707 33.5182 26.028C34.5635 25.7293 36.1782 25.5613 38.3622 25.524C38.3622 24.292 38.3062 23.6387 38.1942 23.564C38.1008 23.4893 37.8022 23.452 37.2982 23.452C36.9808 23.452 36.5422 23.4707 35.9822 23.508C35.0862 23.5453 33.8728 23.648 32.3422 23.816C32.1928 22.808 32.0808 21.7253 32.0062 20.568C32.9955 20.3627 34.0315 20.1947 35.1142 20.064C36.1968 19.9147 37.1675 19.84 38.0262 19.84C39.5195 19.84 40.6395 20.092 41.3862 20.596C42.1328 21.0813 42.6182 21.7253 42.8422 22.528C43.0662 23.3307 43.1688 24.348 43.1502 25.58L43.1222 29.696L43.2062 33H39.2302ZM36.8222 30.2C37.3075 30.2 37.8208 30.1067 38.3622 29.92V27.848H38.1382C36.7568 27.848 35.9915 27.9227 35.8422 28.072C35.7488 28.1653 35.6742 28.3053 35.6182 28.492C35.5808 28.6787 35.5622 28.856 35.5622 29.024C35.5622 29.472 35.6648 29.78 35.8702 29.948C36.0755 30.116 36.3928 30.2 36.8222 30.2ZM65.4441 21.016C65.7427 21.464 65.8921 23.2 65.8921 26.224V33H61.1041V26.7V25.188C61.1041 24.4973 61.0387 24.0867 60.9081 23.956C60.7587 23.8067 60.4414 23.732 59.9561 23.732L59.6201 23.76C59.0414 23.7973 58.4907 23.928 57.9681 24.152C57.9867 24.544 57.9961 25.2347 57.9961 26.224V33H53.2081V26.7V25.02C53.2081 24.4413 53.1427 24.0867 53.0121 23.956C52.8627 23.8067 52.5454 23.732 52.0601 23.732L51.7241 23.76C51.2014 23.7787 50.6601 23.9 50.1001 24.124V33H45.3121V20.12H49.2041L49.7081 22.22C50.3241 21.3987 51.0334 20.8013 51.8361 20.428C52.6387 20.036 53.4507 19.84 54.2721 19.84C54.9627 19.84 55.6161 19.9427 56.2321 20.148C56.8667 20.3533 57.3054 20.6427 57.5481 21.016C57.6601 21.184 57.7534 21.492 57.8281 21.94C58.4254 21.212 59.1067 20.68 59.8721 20.344C60.6374 20.008 61.4027 19.84 62.1681 19.84C62.8587 19.84 63.5121 19.9427 64.1281 20.148C64.7627 20.3533 65.2014 20.6427 65.4441 21.016ZM76.9648 19.84C78.3088 19.84 79.3728 20.288 80.1568 21.184C80.9594 22.0613 81.3607 23.6013 81.3607 25.804C81.3607 27.4467 81.2021 28.7907 80.8848 29.836C80.5674 30.8627 80.2034 31.544 79.7928 31.88C79.3821 32.216 78.6634 32.4867 77.6368 32.692C76.6288 32.8973 75.5834 33 74.5008 33C74.1834 33 73.6514 32.9813 72.9048 32.944V36.92L68.1168 37.116V20.12H72.0368L72.5128 22.108C72.9981 21.4173 73.6141 20.8667 74.3607 20.456C75.1261 20.0453 75.9941 19.84 76.9648 19.84ZM75.8448 29.584C76.0501 29.4347 76.1994 29.0147 76.2928 28.324C76.3861 27.6147 76.4328 26.9427 76.4328 26.308C76.4328 25.2627 76.3021 24.488 76.0408 23.984C75.7794 23.48 75.2568 23.228 74.4728 23.228C73.9128 23.228 73.3901 23.284 72.9048 23.396V29.612L73.6888 29.696C73.9314 29.7147 74.2768 29.724 74.7248 29.724C75.3594 29.724 75.7328 29.6773 75.8448 29.584ZM83.3218 16.2L88.1098 16.004V33H83.3218V16.2ZM98.2959 29.64C98.7626 29.64 99.6306 29.5933 100.9 29.5C101.068 29.5 101.376 29.4813 101.824 29.444L102.244 32.328C100.807 33 98.9399 33.336 96.6439 33.336C94.4973 33.336 92.8453 32.7947 91.6879 31.712C90.5493 30.6293 89.9799 28.996 89.9799 26.812C89.9799 25.692 90.1199 24.6093 90.3999 23.564C90.6986 22.5187 91.0346 21.7907 91.4079 21.38C91.7999 20.9693 92.5279 20.6147 93.5919 20.316C94.6559 20.0173 95.7106 19.868 96.7559 19.868C98.4359 19.868 99.6959 20.1667 100.536 20.764C101.376 21.3613 101.927 22.192 102.188 23.256C102.449 24.3013 102.58 25.7107 102.58 27.484C101.311 27.5587 100.069 27.596 98.8559 27.596H94.8799C94.8799 28.1933 95.0013 28.6413 95.2439 28.94C95.5053 29.2387 95.8693 29.4347 96.3359 29.528C96.8026 29.6027 97.4559 29.64 98.2959 29.64ZM95.1599 23.2C95.0479 23.256 94.9639 23.4987 94.9079 23.928C94.8519 24.3573 94.8146 24.8427 94.7959 25.384H96.2519C97.1293 25.384 97.7639 25.3747 98.1559 25.356C98.1559 24.46 98.0253 23.8253 97.7639 23.452C97.5213 23.0787 97.0919 22.892 96.4759 22.892C95.9719 22.892 95.5333 22.9947 95.1599 23.2Z" fill="white"/>
</svg>
