<svg width="27" height="27" viewBox="0 0 27 27" fill="none" xmlns="http://www.w3.org/2000/svg">
<path d="M16.5234 13.1367L10.9453 9.9668V16.3066L16.5234 13.1367ZM22.5 0H3.75C1.68164 0 0 1.68164 0 3.75V22.5C0 24.5684 1.68164 26.25 3.75 26.25H22.5C24.5684 26.25 26.25 24.5684 26.25 22.5V3.75C26.25 1.68164 24.5684 0 22.5 0ZM23.3437 7.97461C23.7891 9.65039 23.7891 13.1426 23.7891 13.1426C23.7891 13.1426 23.7891 16.6348 23.3437 18.3047C23.0977 19.2305 22.377 19.9277 21.457 20.1738C19.7988 20.625 13.125 20.625 13.125 20.625C13.125 20.625 6.45117 20.625 4.79297 20.1797C3.87305 19.9336 3.15234 19.2363 2.90625 18.3105C2.46094 16.6348 2.46094 13.1426 2.46094 13.1426C2.46094 13.1426 2.46094 9.64453 2.90625 7.97461C3.15234 7.04883 3.87305 6.32227 4.79297 6.07617C6.45117 5.625 13.125 5.625 13.125 5.625C13.125 5.625 19.7988 5.625 21.457 6.07617C22.377 6.32227 23.0977 7.04883 23.3437 7.97461Z" fill="#E5E5E5"/>
</svg>
